<mxfile host="app.diagrams.net" modified="2023-06-01T11:40:12.684Z" agent="Mozilla/5.0 (Macintosh; Intel Mac OS X 10_15_7) AppleWebKit/537.36 (KHTML, like Gecko) Chrome/113.0.0.0 Safari/537.36" version="21.3.5" etag="AoJD_zqWUWhmXoo5r4fy" type="github">
  <diagram name="Page-1" id="EUMfsErNF9Bnk2oodweq">
    <mxGraphModel>
      <root>
        <mxCell id="0" />
        <mxCell id="1" parent="0" />
      </root>
    </mxGraphModel>
  </diagram>
</mxfile>
